<svg width="551" height="172" viewBox="0 0 551 172" fill="none" xmlns="http://www.w3.org/2000/svg">
<path d="M511.5 35.1999H509.68V28.1399H507.35V26.6299H513.82V28.1399H511.5V35.1999Z" fill="#1C1E3F"/>
<path d="M518.77 35.1999L516.71 28.4799H516.65C516.73 29.8399 516.76 30.7599 516.76 31.2099V35.2099H515.14V26.6299H517.61L519.61 33.1799L521.76 26.6299H524.23V35.1999H522.54V31.1399C522.54 30.9499 522.54 30.7299 522.54 30.4799C522.54 30.2299 522.54 29.5699 522.61 28.4799H522.56L520.35 35.1899L518.77 35.1999Z" fill="#1C1E3F"/>
<path d="M65.9999 80.6399C65.5399 82.1199 64.9999 83.8999 64.4899 85.9699C63.4899 89.7599 62.7099 93.0999 62.2099 95.9699C61.8999 94.0699 61.2099 91.1699 60.2099 87.2799C59.2099 83.3899 58.2099 80.1999 57.2999 77.7299L39.9399 25.9199H25.9399L54.9999 109.28H69.3599L79.3599 80.6399H65.9999ZM84.4199 25.9199L69.2099 71.0799H82.7499L98.5599 25.9199H84.4199Z" fill="#1C1E3F"/>
<path d="M160.19 73.5301C160.19 64.6834 157.78 57.7267 152.96 52.6601C148.14 47.5934 141.563 45.0634 133.23 45.0701C124.25 45.0701 117.2 48.0167 112.08 53.9101C106.96 59.8034 104.39 67.9001 104.37 78.2001C104.37 88.2401 107.14 96.1234 112.68 101.85C118.22 107.577 125.887 110.433 135.68 110.42C139.523 110.447 143.36 110.112 147.14 109.42C150.573 108.735 153.906 107.619 157.06 106.1V95.2501C153.737 96.7665 150.27 97.9425 146.71 98.7601C143.289 99.4646 139.803 99.7999 136.31 99.7601C130.637 99.7601 126.243 98.1201 123.13 94.8401C120.01 91.5501 118.37 86.8401 118.13 80.7201H160.13L160.19 73.5301ZM118.41 71.0801C118.903 65.9001 120.433 61.9667 123 59.2801C124.322 57.9192 125.917 56.8538 127.68 56.154C129.443 55.4542 131.335 55.1359 133.23 55.2201C137.483 55.2201 140.817 56.5534 143.23 59.2201C145.643 61.8867 146.9 65.8401 147 71.0801H118.41Z" fill="#1C1E3F"/>
<path d="M207.41 45.07C203.54 45.0699 199.758 46.226 196.55 48.39C193.124 50.6709 190.314 53.7624 188.37 57.39H187.69L185.92 46.27H175.42V109.33H188.82V76.33C188.82 70.75 190.487 66.21 193.82 62.71C195.495 60.9686 197.519 59.6007 199.759 58.6959C201.999 57.7912 204.405 57.37 206.82 57.46C208.817 57.4537 210.808 57.6853 212.75 58.15L214.06 45.66C211.87 45.2332 209.641 45.0355 207.41 45.07V45.07Z" fill="#1C1E3F"/>
<path d="M277.82 73.5301C277.82 64.6834 275.407 57.7267 270.58 52.6601C265.753 47.5934 259.18 45.0634 250.86 45.0701C241.887 45.0701 234.837 48.0167 229.71 53.9101C224.583 59.8034 222.013 67.9001 222 78.2001C222 88.2401 224.767 96.1234 230.3 101.85C235.833 107.577 243.5 110.433 253.3 110.42C257.143 110.446 260.98 110.111 264.76 109.42C268.196 108.733 271.532 107.618 274.69 106.1V95.2501C271.364 96.7667 267.893 97.9427 264.33 98.7601C260.909 99.4646 257.422 99.7999 253.93 99.7601C248.27 99.7601 243.877 98.1201 240.75 94.8401C237.623 91.5601 235.957 86.8534 235.75 80.7201H277.75L277.82 73.5301ZM236 71.0801C236.48 65.9001 238 61.9701 240.58 59.2801C241.905 57.9205 243.502 56.856 245.266 56.1564C247.031 55.4567 248.924 55.1377 250.82 55.2201C255.073 55.2201 258.407 56.5534 260.82 59.2201C263.233 61.8867 264.487 65.8301 264.58 71.0501L236 71.0801Z" fill="#1C1E3F"/>
<path d="M333.7 83.48C332.441 81.1617 330.644 79.1794 328.46 77.6999C324.902 75.4236 321.093 73.5647 317.11 72.16C310.92 69.77 306.9 67.8799 305.05 66.5199C304.216 65.9756 303.529 65.2352 303.047 64.3635C302.566 63.4919 302.306 62.5155 302.29 61.52C302.29 57.52 305.827 55.52 312.9 55.52C317.527 55.52 323.247 56.9233 330.06 59.7299L334.38 49.64C327.786 46.6428 320.623 45.1044 313.38 45.13C305.9 45.13 299.98 46.6233 295.62 49.61C293.54 50.9655 291.846 52.8366 290.703 55.0412C289.56 57.2457 289.008 59.7086 289.1 62.1899C288.926 66.1965 290.305 70.1157 292.95 73.1299C295.51 75.9499 300.42 78.7666 307.68 81.58C310.67 82.6811 313.586 83.9738 316.41 85.4499C318.09 86.2854 319.612 87.4053 320.91 88.76C321.847 89.8773 322.335 91.3029 322.28 92.76C322.28 97.7266 318.157 100.217 309.91 100.23C303.53 100.23 296.63 98.5199 289.21 95.0999V106.6C294.31 109.153 301.057 110.427 309.45 110.42C317.843 110.413 324.27 108.767 328.73 105.48C333.21 102.187 335.45 97.4666 335.45 91.32C335.51 88.6034 334.91 85.9129 333.7 83.48Z" fill="#1C1E3F"/>
<path d="M373.39 99.59C372.224 99.6458 371.059 99.4694 369.962 99.0711C368.865 98.6729 367.858 98.0606 367 97.27C365.393 95.7366 364.587 93.3533 364.58 90.12V56.37H382.58V46.22H364.58V32.22H356.31L351.75 45.56L342.51 50.47V56.4H351.13V90.4C351.13 103.793 357.463 110.487 370.13 110.48C372.565 110.487 374.996 110.266 377.39 109.82C379.357 109.503 381.28 108.956 383.12 108.19V98.05C379.973 99.0511 376.692 99.5703 373.39 99.59Z" fill="#1C1E3F"/>
<path d="M427.78 45.07C423.91 45.0699 420.128 46.226 416.92 48.39C413.496 50.6735 410.687 53.7643 408.74 57.39H408.05L406.3 46.22H395.8V109.28H409.2V76.28C409.2 70.7 410.85 66.16 414.2 62.66C415.875 60.9186 417.899 59.5507 420.139 58.6459C422.379 57.7412 424.786 57.32 427.2 57.41C429.197 57.4037 431.188 57.6353 433.13 58.1L434.44 45.61C432.245 45.2005 430.013 45.0196 427.78 45.07V45.07Z" fill="#1C1E3F"/>
<path d="M488.2 80.7101C487.48 93.2301 482.187 99.4867 472.32 99.4801C462.453 99.4734 457.12 93.2167 456.32 80.7101H442.47C442.691 85.6599 443.89 90.5169 446 95.0001C448.253 99.7802 451.89 103.773 456.44 106.46C461.186 109.189 466.586 110.572 472.06 110.46C481.48 110.46 488.837 107.57 494.13 101.79C498.87 96.6034 501.48 89.6034 501.96 80.7901L488.2 80.7101ZM460 61.6101C462.513 57.8701 466.58 56.0001 472.2 56.0001C481.12 56.0001 486.33 61.0001 487.83 71.0001H501.63C500.938 64.6613 498.309 58.69 494.1 53.9001C488.767 48.0334 481.547 45.0934 472.44 45.0801C462.893 45.0801 455.497 47.9534 450.25 53.7001C446.21 58.1267 443.727 63.8934 442.8 71.0001H456.64C457.048 67.6592 458.196 64.4513 460 61.6101V61.6101Z" fill="#1C1E3F"/>
<path d="M306.137 122.19V124.153H297.586V130.38H304.894V132.344H297.586V140H295.163V122.19H306.137Z" fill="#4C4C4C"/>
<path d="M311.355 127.41V140H309.142V127.41H311.355ZM311.852 123.457C311.852 123.673 311.806 123.876 311.715 124.066C311.632 124.249 311.516 124.414 311.367 124.564C311.226 124.704 311.061 124.816 310.87 124.899C310.679 124.982 310.476 125.023 310.261 125.023C310.046 125.023 309.843 124.982 309.652 124.899C309.47 124.816 309.304 124.704 309.155 124.564C309.014 124.414 308.902 124.249 308.819 124.066C308.736 123.876 308.695 123.673 308.695 123.457C308.695 123.242 308.736 123.039 308.819 122.848C308.902 122.65 309.014 122.48 309.155 122.339C309.304 122.19 309.47 122.074 309.652 121.991C309.843 121.908 310.046 121.867 310.261 121.867C310.476 121.867 310.679 121.908 310.87 121.991C311.061 122.074 311.226 122.19 311.367 122.339C311.516 122.48 311.632 122.65 311.715 122.848C311.806 123.039 311.852 123.242 311.852 123.457Z" fill="#4C4C4C"/>
<path d="M315.254 140V127.41H316.571C316.886 127.41 317.085 127.563 317.168 127.87L317.342 129.237C317.889 128.632 318.498 128.143 319.169 127.77C319.848 127.397 320.631 127.211 321.518 127.211C322.205 127.211 322.81 127.327 323.332 127.559C323.863 127.783 324.302 128.106 324.65 128.528C325.006 128.943 325.275 129.444 325.458 130.032C325.64 130.62 325.731 131.271 325.731 131.983V140H323.519V131.983C323.519 131.031 323.299 130.293 322.86 129.771C322.429 129.241 321.766 128.976 320.871 128.976C320.217 128.976 319.604 129.133 319.032 129.448C318.469 129.763 317.947 130.19 317.466 130.728V140H315.254Z" fill="#4C4C4C"/>
<path d="M332.882 140.199C331.887 140.199 331.121 139.921 330.582 139.366C330.052 138.811 329.787 138.011 329.787 136.967V129.262H328.271C328.138 129.262 328.026 129.224 327.935 129.15C327.844 129.067 327.798 128.943 327.798 128.777V127.894L329.861 127.633L330.371 123.743C330.388 123.619 330.441 123.52 330.533 123.445C330.624 123.362 330.74 123.321 330.881 123.321H331.999V127.658H335.603V129.262H331.999V136.818C331.999 137.348 332.128 137.742 332.384 137.999C332.641 138.256 332.973 138.384 333.379 138.384C333.611 138.384 333.81 138.355 333.975 138.297C334.149 138.231 334.298 138.16 334.423 138.086C334.547 138.011 334.651 137.945 334.733 137.887C334.825 137.821 334.903 137.788 334.97 137.788C335.086 137.788 335.189 137.858 335.28 137.999L335.927 139.055C335.545 139.412 335.086 139.693 334.547 139.9C334.008 140.099 333.453 140.199 332.882 140.199Z" fill="#4C4C4C"/>
<path d="M343.323 127.211C344.077 127.211 344.773 127.339 345.411 127.596C346.049 127.845 346.6 128.209 347.064 128.69C347.528 129.162 347.888 129.75 348.145 130.455C348.41 131.151 348.543 131.946 348.543 132.841C348.543 133.189 348.505 133.421 348.431 133.537C348.356 133.653 348.215 133.711 348.008 133.711H339.631C339.648 134.506 339.756 135.198 339.955 135.787C340.153 136.375 340.427 136.868 340.775 137.266C341.123 137.655 341.537 137.949 342.018 138.148C342.498 138.339 343.037 138.434 343.633 138.434C344.189 138.434 344.665 138.372 345.063 138.247C345.469 138.115 345.817 137.974 346.107 137.825C346.397 137.676 346.637 137.539 346.828 137.415C347.026 137.282 347.196 137.216 347.337 137.216C347.519 137.216 347.66 137.286 347.76 137.427L348.381 138.235C348.108 138.566 347.78 138.856 347.399 139.105C347.018 139.345 346.608 139.544 346.169 139.702C345.738 139.859 345.291 139.975 344.827 140.05C344.363 140.132 343.903 140.174 343.447 140.174C342.577 140.174 341.773 140.029 341.036 139.739C340.307 139.441 339.673 139.01 339.134 138.446C338.604 137.875 338.19 137.17 337.891 136.333C337.593 135.497 337.444 134.535 337.444 133.45C337.444 132.572 337.577 131.751 337.842 130.989C338.115 130.227 338.505 129.568 339.01 129.013C339.515 128.45 340.133 128.01 340.862 127.696C341.591 127.372 342.411 127.211 343.323 127.211ZM343.372 128.839C342.304 128.839 341.463 129.15 340.849 129.771C340.236 130.384 339.855 131.238 339.706 132.331H346.554C346.554 131.818 346.484 131.35 346.343 130.927C346.202 130.496 345.995 130.127 345.721 129.821C345.448 129.506 345.112 129.266 344.715 129.1C344.325 128.926 343.878 128.839 343.372 128.839Z" fill="#4C4C4C"/>
<path d="M359.962 129.647C359.896 129.738 359.83 129.808 359.764 129.858C359.697 129.908 359.602 129.933 359.478 129.933C359.353 129.933 359.217 129.883 359.068 129.784C358.927 129.676 358.744 129.56 358.521 129.436C358.297 129.311 358.024 129.199 357.7 129.1C357.386 128.992 356.996 128.938 356.532 128.938C355.919 128.938 355.376 129.05 354.904 129.274C354.432 129.489 354.034 129.804 353.711 130.219C353.396 130.633 353.156 131.134 352.99 131.722C352.833 132.311 352.754 132.969 352.754 133.699C352.754 134.461 352.841 135.14 353.015 135.737C353.189 136.325 353.433 136.822 353.748 137.228C354.063 137.626 354.444 137.933 354.892 138.148C355.347 138.355 355.857 138.459 356.42 138.459C356.959 138.459 357.402 138.397 357.75 138.272C358.098 138.14 358.388 137.995 358.62 137.837C358.852 137.68 359.043 137.539 359.192 137.415C359.341 137.282 359.49 137.216 359.639 137.216C359.83 137.216 359.971 137.286 360.062 137.427L360.683 138.235C360.136 138.906 359.453 139.399 358.633 139.714C357.812 140.021 356.946 140.174 356.035 140.174C355.248 140.174 354.515 140.029 353.835 139.739C353.164 139.449 352.58 139.03 352.083 138.484C351.586 137.928 351.192 137.249 350.902 136.445C350.62 135.642 350.479 134.726 350.479 133.699C350.479 132.762 350.608 131.896 350.865 131.101C351.13 130.306 351.511 129.622 352.008 129.05C352.514 128.47 353.135 128.019 353.872 127.696C354.61 127.372 355.455 127.211 356.408 127.211C357.286 127.211 358.065 127.356 358.744 127.646C359.424 127.928 360.025 128.329 360.547 128.851L359.962 129.647Z" fill="#4C4C4C"/>
<path d="M362.978 140V121.693H365.19V129.1C365.728 128.528 366.325 128.073 366.98 127.733C367.634 127.385 368.388 127.211 369.242 127.211C369.929 127.211 370.534 127.327 371.056 127.559C371.586 127.783 372.026 128.106 372.374 128.528C372.73 128.943 372.999 129.444 373.181 130.032C373.364 130.62 373.455 131.271 373.455 131.983V140H371.243V131.983C371.243 131.031 371.023 130.293 370.584 129.771C370.153 129.241 369.49 128.976 368.595 128.976C367.941 128.976 367.328 129.133 366.756 129.448C366.192 129.763 365.67 130.19 365.19 130.728V140H362.978Z" fill="#4C4C4C"/>
<path d="M390.843 140H389.861C389.646 140 389.472 139.967 389.339 139.9C389.207 139.834 389.12 139.693 389.078 139.478L388.83 138.31C388.498 138.608 388.175 138.877 387.86 139.117C387.545 139.349 387.214 139.548 386.866 139.714C386.518 139.871 386.145 139.992 385.747 140.074C385.358 140.157 384.923 140.199 384.442 140.199C383.953 140.199 383.494 140.132 383.063 140C382.64 139.859 382.271 139.652 381.957 139.378C381.642 139.105 381.389 138.761 381.198 138.347C381.016 137.924 380.925 137.427 380.925 136.855C380.925 136.358 381.062 135.882 381.335 135.426C381.609 134.962 382.048 134.552 382.653 134.196C383.266 133.839 384.065 133.549 385.051 133.326C386.037 133.094 387.243 132.961 388.668 132.928V131.946C388.668 130.968 388.457 130.231 388.034 129.734C387.62 129.228 387.003 128.976 386.182 128.976C385.644 128.976 385.188 129.046 384.815 129.187C384.451 129.32 384.132 129.473 383.858 129.647C383.593 129.813 383.361 129.966 383.162 130.107C382.972 130.239 382.781 130.306 382.59 130.306C382.441 130.306 382.309 130.268 382.193 130.194C382.085 130.111 381.998 130.011 381.932 129.895L381.534 129.187C382.23 128.516 382.98 128.015 383.784 127.683C384.587 127.352 385.478 127.186 386.456 127.186C387.16 127.186 387.786 127.302 388.332 127.534C388.879 127.766 389.339 128.089 389.712 128.503C390.085 128.918 390.367 129.419 390.557 130.007C390.748 130.596 390.843 131.242 390.843 131.946V140ZM385.101 138.645C385.49 138.645 385.847 138.608 386.17 138.533C386.493 138.45 386.795 138.339 387.077 138.198C387.367 138.049 387.641 137.87 387.897 137.663C388.163 137.456 388.419 137.22 388.668 136.955V134.332C387.649 134.366 386.783 134.448 386.07 134.581C385.358 134.705 384.778 134.871 384.33 135.078C383.883 135.285 383.556 135.53 383.349 135.811C383.15 136.093 383.05 136.408 383.05 136.756C383.05 137.087 383.104 137.373 383.212 137.614C383.32 137.854 383.465 138.053 383.647 138.21C383.829 138.359 384.045 138.471 384.293 138.546C384.542 138.612 384.811 138.645 385.101 138.645Z" fill="#4C4C4C"/>
<path d="M401.403 129.485C401.304 129.668 401.15 129.759 400.943 129.759C400.819 129.759 400.678 129.713 400.521 129.622C400.363 129.531 400.169 129.431 399.937 129.324C399.713 129.208 399.444 129.104 399.129 129.013C398.814 128.914 398.441 128.864 398.01 128.864C397.637 128.864 397.302 128.914 397.003 129.013C396.705 129.104 396.448 129.233 396.233 129.398C396.026 129.564 395.864 129.759 395.748 129.982C395.64 130.198 395.587 130.434 395.587 130.691C395.587 131.014 395.678 131.283 395.86 131.499C396.051 131.714 396.299 131.901 396.606 132.058C396.912 132.215 397.26 132.356 397.65 132.481C398.039 132.597 398.437 132.725 398.843 132.866C399.257 132.998 399.659 133.148 400.048 133.313C400.438 133.479 400.786 133.686 401.092 133.935C401.399 134.183 401.643 134.49 401.826 134.854C402.016 135.211 402.112 135.642 402.112 136.147C402.112 136.727 402.008 137.266 401.801 137.763C401.594 138.252 401.287 138.678 400.881 139.043C400.475 139.399 399.978 139.681 399.39 139.888C398.801 140.095 398.122 140.199 397.351 140.199C396.473 140.199 395.678 140.058 394.965 139.776C394.253 139.486 393.648 139.117 393.151 138.67L393.673 137.825C393.739 137.717 393.818 137.634 393.909 137.576C394 137.518 394.12 137.489 394.269 137.489C394.418 137.489 394.576 137.547 394.741 137.663C394.907 137.779 395.106 137.908 395.338 138.049C395.578 138.189 395.864 138.318 396.196 138.434C396.535 138.55 396.958 138.608 397.463 138.608C397.894 138.608 398.271 138.554 398.594 138.446C398.917 138.33 399.187 138.177 399.402 137.986C399.618 137.796 399.775 137.576 399.874 137.328C399.982 137.079 400.036 136.814 400.036 136.532C400.036 136.184 399.941 135.898 399.75 135.675C399.568 135.443 399.323 135.248 399.017 135.091C398.71 134.925 398.358 134.784 397.96 134.668C397.571 134.544 397.169 134.415 396.755 134.283C396.349 134.15 395.947 134.001 395.549 133.835C395.16 133.661 394.812 133.446 394.505 133.189C394.199 132.932 393.95 132.617 393.76 132.244C393.577 131.863 393.486 131.403 393.486 130.865C393.486 130.384 393.586 129.924 393.784 129.485C393.983 129.038 394.273 128.648 394.654 128.317C395.036 127.977 395.504 127.708 396.059 127.509C396.614 127.31 397.248 127.211 397.96 127.211C398.789 127.211 399.531 127.343 400.185 127.609C400.848 127.865 401.42 128.222 401.9 128.677L401.403 129.485Z" fill="#4C4C4C"/>
<path d="M419.026 140H418.044C417.828 140 417.654 139.967 417.522 139.9C417.389 139.834 417.302 139.693 417.261 139.478L417.012 138.31C416.681 138.608 416.358 138.877 416.043 139.117C415.728 139.349 415.397 139.548 415.049 139.714C414.701 139.871 414.328 139.992 413.93 140.074C413.541 140.157 413.106 140.199 412.625 140.199C412.136 140.199 411.676 140.132 411.245 140C410.823 139.859 410.454 139.652 410.139 139.378C409.824 139.105 409.572 138.761 409.381 138.347C409.199 137.924 409.108 137.427 409.108 136.855C409.108 136.358 409.244 135.882 409.518 135.426C409.791 134.962 410.23 134.552 410.835 134.196C411.448 133.839 412.248 133.549 413.234 133.326C414.22 133.094 415.426 132.961 416.851 132.928V131.946C416.851 130.968 416.639 130.231 416.217 129.734C415.803 129.228 415.185 128.976 414.365 128.976C413.826 128.976 413.371 129.046 412.998 129.187C412.633 129.32 412.314 129.473 412.041 129.647C411.776 129.813 411.544 129.966 411.345 130.107C411.154 130.239 410.964 130.306 410.773 130.306C410.624 130.306 410.491 130.268 410.375 130.194C410.268 130.111 410.181 130.011 410.114 129.895L409.717 129.187C410.413 128.516 411.163 128.015 411.966 127.683C412.77 127.352 413.661 127.186 414.638 127.186C415.343 127.186 415.968 127.302 416.515 127.534C417.062 127.766 417.522 128.089 417.895 128.503C418.268 128.918 418.549 129.419 418.74 130.007C418.93 130.596 419.026 131.242 419.026 131.946V140ZM413.284 138.645C413.673 138.645 414.029 138.608 414.353 138.533C414.676 138.45 414.978 138.339 415.26 138.198C415.55 138.049 415.823 137.87 416.08 137.663C416.345 137.456 416.602 137.22 416.851 136.955V134.332C415.832 134.366 414.966 134.448 414.253 134.581C413.541 134.705 412.961 134.871 412.513 135.078C412.066 135.285 411.738 135.53 411.531 135.811C411.332 136.093 411.233 136.408 411.233 136.756C411.233 137.087 411.287 137.373 411.395 137.614C411.502 137.854 411.647 138.053 411.83 138.21C412.012 138.359 412.227 138.471 412.476 138.546C412.724 138.612 412.994 138.645 413.284 138.645Z" fill="#4C4C4C"/>
<path d="M434.392 129.485C434.293 129.668 434.14 129.759 433.932 129.759C433.808 129.759 433.667 129.713 433.51 129.622C433.352 129.531 433.158 129.431 432.926 129.324C432.702 129.208 432.433 129.104 432.118 129.013C431.803 128.914 431.43 128.864 430.999 128.864C430.626 128.864 430.291 128.914 429.993 129.013C429.694 129.104 429.437 129.233 429.222 129.398C429.015 129.564 428.853 129.759 428.737 129.982C428.63 130.198 428.576 130.434 428.576 130.691C428.576 131.014 428.667 131.283 428.849 131.499C429.04 131.714 429.288 131.901 429.595 132.058C429.901 132.215 430.249 132.356 430.639 132.481C431.028 132.597 431.426 132.725 431.832 132.866C432.246 132.998 432.648 133.148 433.038 133.313C433.427 133.479 433.775 133.686 434.082 133.935C434.388 134.183 434.633 134.49 434.815 134.854C435.005 135.211 435.101 135.642 435.101 136.147C435.101 136.727 434.997 137.266 434.79 137.763C434.583 138.252 434.276 138.678 433.87 139.043C433.464 139.399 432.967 139.681 432.379 139.888C431.791 140.095 431.111 140.199 430.341 140.199C429.462 140.199 428.667 140.058 427.954 139.776C427.242 139.486 426.637 139.117 426.14 138.67L426.662 137.825C426.728 137.717 426.807 137.634 426.898 137.576C426.989 137.518 427.109 137.489 427.258 137.489C427.407 137.489 427.565 137.547 427.731 137.663C427.896 137.779 428.095 137.908 428.327 138.049C428.567 138.189 428.853 138.318 429.185 138.434C429.524 138.55 429.947 138.608 430.452 138.608C430.883 138.608 431.26 138.554 431.583 138.446C431.907 138.33 432.176 138.177 432.391 137.986C432.607 137.796 432.764 137.576 432.864 137.328C432.971 137.079 433.025 136.814 433.025 136.532C433.025 136.184 432.93 135.898 432.739 135.675C432.557 135.443 432.313 135.248 432.006 135.091C431.699 134.925 431.347 134.784 430.95 134.668C430.56 134.544 430.158 134.415 429.744 134.283C429.338 134.15 428.936 134.001 428.538 133.835C428.149 133.661 427.801 133.446 427.494 133.189C427.188 132.932 426.939 132.617 426.749 132.244C426.566 131.863 426.475 131.403 426.475 130.865C426.475 130.384 426.575 129.924 426.774 129.485C426.972 129.038 427.262 128.648 427.644 128.317C428.025 127.977 428.493 127.708 429.048 127.509C429.603 127.31 430.237 127.211 430.95 127.211C431.778 127.211 432.52 127.343 433.174 127.609C433.837 127.865 434.409 128.222 434.889 128.677L434.392 129.485Z" fill="#4C4C4C"/>
<path d="M442.945 127.211C443.699 127.211 444.395 127.339 445.033 127.596C445.671 127.845 446.222 128.209 446.686 128.69C447.15 129.162 447.511 129.75 447.768 130.455C448.033 131.151 448.165 131.946 448.165 132.841C448.165 133.189 448.128 133.421 448.054 133.537C447.979 133.653 447.838 133.711 447.631 133.711H439.254C439.271 134.506 439.378 135.198 439.577 135.787C439.776 136.375 440.05 136.868 440.398 137.266C440.746 137.655 441.16 137.949 441.64 138.148C442.121 138.339 442.66 138.434 443.256 138.434C443.811 138.434 444.288 138.372 444.685 138.247C445.091 138.115 445.439 137.974 445.729 137.825C446.019 137.676 446.26 137.539 446.45 137.415C446.649 137.282 446.819 137.216 446.96 137.216C447.142 137.216 447.283 137.286 447.382 137.427L448.004 138.235C447.73 138.566 447.403 138.856 447.022 139.105C446.641 139.345 446.231 139.544 445.792 139.702C445.361 139.859 444.913 139.975 444.449 140.05C443.985 140.132 443.525 140.174 443.07 140.174C442.2 140.174 441.396 140.029 440.659 139.739C439.929 139.441 439.296 139.01 438.757 138.446C438.227 137.875 437.812 137.17 437.514 136.333C437.216 135.497 437.067 134.535 437.067 133.45C437.067 132.572 437.199 131.751 437.464 130.989C437.738 130.227 438.127 129.568 438.633 129.013C439.138 128.45 439.755 128.01 440.485 127.696C441.214 127.372 442.034 127.211 442.945 127.211ZM442.995 128.839C441.926 128.839 441.085 129.15 440.472 129.771C439.859 130.384 439.478 131.238 439.329 132.331H446.177C446.177 131.818 446.106 131.35 445.966 130.927C445.825 130.496 445.618 130.127 445.344 129.821C445.071 129.506 444.735 129.266 444.337 129.1C443.948 128.926 443.501 128.839 442.995 128.839Z" fill="#4C4C4C"/>
<path d="M450.997 140V127.41H452.265C452.505 127.41 452.671 127.455 452.762 127.546C452.853 127.638 452.915 127.795 452.948 128.019L453.097 129.982C453.528 129.104 454.059 128.421 454.688 127.932C455.326 127.435 456.072 127.186 456.925 127.186C457.273 127.186 457.588 127.227 457.87 127.31C458.152 127.385 458.413 127.493 458.653 127.633L458.367 129.286C458.309 129.494 458.181 129.597 457.982 129.597C457.866 129.597 457.688 129.56 457.447 129.485C457.207 129.402 456.872 129.361 456.441 129.361C455.67 129.361 455.024 129.585 454.502 130.032C453.988 130.48 453.557 131.13 453.209 131.983V140H450.997Z" fill="#4C4C4C"/>
<path d="M459.432 127.41H461.246C461.42 127.41 461.565 127.455 461.681 127.546C461.797 127.638 461.88 127.745 461.93 127.87L465.124 135.973C465.24 136.271 465.331 136.57 465.397 136.868C465.464 137.166 465.526 137.46 465.584 137.75C465.65 137.46 465.72 137.166 465.795 136.868C465.87 136.57 465.965 136.271 466.081 135.973L469.312 127.87C469.362 127.737 469.441 127.629 469.548 127.546C469.664 127.455 469.805 127.41 469.971 127.41H471.699L466.566 140H464.565L459.432 127.41Z" fill="#4C4C4C"/>
<path d="M476.203 127.41V140H473.991V127.41H476.203ZM476.7 123.457C476.7 123.673 476.655 123.876 476.564 124.066C476.481 124.249 476.365 124.414 476.216 124.564C476.075 124.704 475.909 124.816 475.718 124.899C475.528 124.982 475.325 125.023 475.109 125.023C474.894 125.023 474.691 124.982 474.5 124.899C474.318 124.816 474.152 124.704 474.003 124.564C473.862 124.414 473.751 124.249 473.668 124.066C473.585 123.876 473.543 123.673 473.543 123.457C473.543 123.242 473.585 123.039 473.668 122.848C473.751 122.65 473.862 122.48 474.003 122.339C474.152 122.19 474.318 122.074 474.5 121.991C474.691 121.908 474.894 121.867 475.109 121.867C475.325 121.867 475.528 121.908 475.718 121.991C475.909 122.074 476.075 122.19 476.216 122.339C476.365 122.48 476.481 122.65 476.564 122.848C476.655 123.039 476.7 123.242 476.7 123.457Z" fill="#4C4C4C"/>
<path d="M488.69 129.647C488.624 129.738 488.558 129.808 488.492 129.858C488.425 129.908 488.33 129.933 488.206 129.933C488.081 129.933 487.945 129.883 487.796 129.784C487.655 129.676 487.472 129.56 487.249 129.436C487.025 129.311 486.752 129.199 486.428 129.1C486.114 128.992 485.724 128.938 485.26 128.938C484.647 128.938 484.104 129.05 483.632 129.274C483.16 129.489 482.762 129.804 482.439 130.219C482.124 130.633 481.884 131.134 481.718 131.722C481.561 132.311 481.482 132.969 481.482 133.699C481.482 134.461 481.569 135.14 481.743 135.737C481.917 136.325 482.161 136.822 482.476 137.228C482.791 137.626 483.172 137.933 483.62 138.148C484.075 138.355 484.585 138.459 485.148 138.459C485.687 138.459 486.13 138.397 486.478 138.272C486.826 138.14 487.116 137.995 487.348 137.837C487.58 137.68 487.771 137.539 487.92 137.415C488.069 137.282 488.218 137.216 488.367 137.216C488.558 137.216 488.699 137.286 488.79 137.427L489.411 138.235C488.864 138.906 488.181 139.399 487.361 139.714C486.54 140.021 485.674 140.174 484.763 140.174C483.976 140.174 483.243 140.029 482.563 139.739C481.892 139.449 481.308 139.03 480.811 138.484C480.314 137.928 479.92 137.249 479.63 136.445C479.348 135.642 479.207 134.726 479.207 133.699C479.207 132.762 479.336 131.896 479.593 131.101C479.858 130.306 480.239 129.622 480.736 129.05C481.242 128.47 481.863 128.019 482.6 127.696C483.338 127.372 484.183 127.211 485.136 127.211C486.014 127.211 486.793 127.356 487.472 127.646C488.152 127.928 488.753 128.329 489.275 128.851L488.69 129.647Z" fill="#4C4C4C"/>
<path d="M496.689 127.211C497.443 127.211 498.139 127.339 498.777 127.596C499.415 127.845 499.966 128.209 500.43 128.69C500.894 129.162 501.255 129.75 501.512 130.455C501.777 131.151 501.909 131.946 501.909 132.841C501.909 133.189 501.872 133.421 501.798 133.537C501.723 133.653 501.582 133.711 501.375 133.711H492.998C493.015 134.506 493.122 135.198 493.321 135.787C493.52 136.375 493.793 136.868 494.141 137.266C494.489 137.655 494.904 137.949 495.384 138.148C495.865 138.339 496.404 138.434 497 138.434C497.555 138.434 498.032 138.372 498.429 138.247C498.835 138.115 499.183 137.974 499.473 137.825C499.763 137.676 500.004 137.539 500.194 137.415C500.393 137.282 500.563 137.216 500.704 137.216C500.886 137.216 501.027 137.286 501.126 137.427L501.748 138.235C501.474 138.566 501.147 138.856 500.766 139.105C500.385 139.345 499.975 139.544 499.536 139.702C499.105 139.859 498.657 139.975 498.193 140.05C497.729 140.132 497.269 140.174 496.814 140.174C495.944 140.174 495.14 140.029 494.402 139.739C493.673 139.441 493.04 139.01 492.501 138.446C491.971 137.875 491.556 137.17 491.258 136.333C490.96 135.497 490.811 134.535 490.811 133.45C490.811 132.572 490.943 131.751 491.208 130.989C491.482 130.227 491.871 129.568 492.377 129.013C492.882 128.45 493.499 128.01 494.229 127.696C494.958 127.372 495.778 127.211 496.689 127.211ZM496.739 128.839C495.67 128.839 494.829 129.15 494.216 129.771C493.603 130.384 493.222 131.238 493.073 132.331H499.921C499.921 131.818 499.85 131.35 499.71 130.927C499.569 130.496 499.362 130.127 499.088 129.821C498.815 129.506 498.479 129.266 498.081 129.1C497.692 128.926 497.245 128.839 496.739 128.839Z" fill="#4C4C4C"/>
</svg>
